<svg xmlns="http://www.w3.org/2000/svg" xmlns:xlink="http://www.w3.org/1999/xlink" viewBox="0 0 567.05 217.87"><defs><style>.cls-1{fill:url(#Безымянный_градиент_39);}.cls-2{fill:url(#Безымянный_градиент_39-3);}.cls-3{fill:url(#Безымянный_градиент_39-4);}.cls-4{fill:url(#Безымянный_градиент_39-5);}.cls-5{fill:url(#Безымянный_градиент_39-6);}.cls-6{fill:url(#Безымянный_градиент_39-7);}.cls-7{fill:url(#Безымянный_градиент_39-8);}.cls-8{fill:url(#Безымянный_градиент_39-9);}.cls-9{fill:url(#Безымянный_градиент_39-10);}</style><linearGradient id="Безымянный_градиент_39" x1="-3.48" y1="74.06" x2="570.19" y2="74.06" gradientUnits="userSpaceOnUse"><stop offset="0" stop-color="#38c1b3"/><stop offset="1" stop-color="#62439e"/></linearGradient><linearGradient id="Безымянный_градиент_39-3" x1="-3.48" y1="72.84" x2="570.19" y2="72.84" xlink:href="#Безымянный_градиент_39"/><linearGradient id="Безымянный_градиент_39-4" x1="-3.48" y1="74.06" x2="570.19" y2="74.06" xlink:href="#Безымянный_градиент_39"/><linearGradient id="Безымянный_градиент_39-5" x1="-3.48" y1="75.67" x2="570.19" y2="75.67" xlink:href="#Безымянный_градиент_39"/><linearGradient id="Безымянный_градиент_39-6" x1="-3.53" y1="72.84" x2="570.14" y2="72.84" xlink:href="#Безымянный_градиент_39"/><linearGradient id="Безымянный_градиент_39-7" x1="-3.48" y1="74.57" x2="570.19" y2="74.57" xlink:href="#Безымянный_градиент_39"/><linearGradient id="Безымянный_градиент_39-8" x1="568.07" y1="108.94" x2="-11.24" y2="108.94" xlink:href="#Безымянный_градиент_39"/><linearGradient id="Безымянный_градиент_39-9" x1="568.07" y1="168.69" x2="-11.24" y2="168.69" xlink:href="#Безымянный_градиент_39"/><linearGradient id="Безымянный_градиент_39-10" x1="568.07" y1="169.91" x2="-11.24" y2="169.91" xlink:href="#Безымянный_градиент_39"/></defs><title>Ресурс 1</title><g id="Слой_2" data-name="Слой 2"><g id="Слой_1-2" data-name="Слой 1"><path class="cls-1" d="M134.58,117.25a43.19,43.19,0,1,1,43.19-43.19A43.24,43.24,0,0,1,134.58,117.25Zm0-68.62A25.43,25.43,0,1,0,160,74.06,25.46,25.46,0,0,0,134.58,48.63Z"/><path class="cls-1" d="M390.72,117.25a43.19,43.19,0,1,1,43.19-43.19A43.24,43.24,0,0,1,390.72,117.25Zm0-68.62a25.43,25.43,0,1,0,25.43,25.43A25.46,25.46,0,0,0,390.72,48.63Z"/><polygon class="cls-2" points="567.04 45.18 561.15 28.43 505.46 48.03 511.35 64.78 527.37 59.14 527.37 117.25 545.13 117.25 545.13 52.89 567.04 45.18"/><path class="cls-3" d="M277.82,32.51a8.85,8.85,0,0,0-8.08-1.13l-27.12,9.54V39.75a8.88,8.88,0,0,0-11.83-8.37l-27.12,9.54v-10H185.91v86.37h17.76V59.74l21.19-7.45v65h17.76V59.74l21.19-7.45v65h17.76V39.75A8.87,8.87,0,0,0,277.82,32.51Z"/><path class="cls-4" d="M486.62,120.47l-23.85-42A8.87,8.87,0,0,1,464,68l10.09-10.67-14.23-5v65H442.13V39.75A8.88,8.88,0,0,1,454,31.38l39,13.7a8.87,8.87,0,0,1,3.5,14.47l-15,15.84,20.61,36.32Z"/><path class="cls-5" d="M310,59.74l41.39-14.56-5.89-16.75L298.14,45.08a8.88,8.88,0,0,0-5.93,8.37v63.8H310V82.94h25.42V65.18H310Z"/><path class="cls-6" d="M83.24,121.37,35.92,104.72A8.89,8.89,0,0,1,30,96.34V52.8a8.89,8.89,0,0,1,5.93-8.38L83.24,27.77l5.9,16.75L47.75,59.08v31l41.39,14.56Z"/><path class="cls-7" d="M26.34,217.87l-5.9-16.74,41.4-14.56V144.11L5.93,124.44A8.88,8.88,0,0,1,0,116.07V32.32A8.88,8.88,0,0,1,5.93,24L74,0,79.9,16.75,17.76,38.61v71.17l55.9,19.66a8.89,8.89,0,0,1,5.93,8.38v55a8.89,8.89,0,0,1-5.93,8.38Z"/><path class="cls-8" d="M202.8,155.59,244.19,141l-5.89-16.75L191,140.93a8.87,8.87,0,0,0-5.93,8.37v63.8H202.8V178.79h25.42V161H202.8Z"/><path class="cls-9" d="M134.58,213.1a43.19,43.19,0,1,1,43.19-43.19A43.23,43.23,0,0,1,134.58,213.1Zm0-68.62A25.43,25.43,0,1,0,160,169.91,25.46,25.46,0,0,0,134.58,144.48Z"/><polygon class="cls-8" points="306.41 141.03 300.52 124.28 244.82 143.88 250.71 160.63 266.74 154.99 266.74 213.1 284.49 213.1 284.49 148.74 306.41 141.03"/></g></g></svg>